<?xml version="1.0" encoding="UTF-8"?>
<svg xmlns="http://www.w3.org/2000/svg" xmlns:xlink="http://www.w3.org/1999/xlink" width="150px" height="16px" viewBox="0 0 148 16" version="1.1">
<defs>
<clipPath id="clip1">
  <path d="M 0.398438 0.0859375 L 147.421875 0.0859375 L 147.421875 16 L 0.398438 16 Z M 0.398438 0.0859375 "/>
</clipPath>
</defs>
<g id="surface1">
<g clip-path="url(#clip1)" clip-rule="nonzero">
<path style=" stroke:none;fill-rule:nonzero;fill:rgb(100%,100%,100%);fill-opacity:1;" d="M 11.214844 0.171875 L 16.394531 15.957031 L 11.753906 15.957031 L 10.988281 13.003906 L 5.878906 13.003906 L 5.089844 15.957031 L 0.421875 15.957031 L 5.542969 0.171875 Z M 6.761719 9.527344 L 10.105469 9.527344 C 9.121094 5.796875 8.554688 3.542969 8.410156 2.761719 C 8.253906 3.75 7.703125 6.003906 6.761719 9.527344 Z M 22.351562 0.226562 L 22.351562 15.957031 L 18.089844 15.957031 L 18.089844 0.226562 Z M 31.316406 7.421875 L 31.316406 10.769531 L 25.25 10.769531 L 25.25 7.421875 Z M 44.496094 12.527344 L 44.496094 15.957031 L 34.207031 15.957031 L 34.207031 0.226562 L 38.457031 0.226562 L 38.457031 12.527344 Z M 51.265625 12.488281 L 56.335938 12.488281 L 56.335938 15.957031 L 47.015625 15.957031 L 47.015625 0.226562 L 56.335938 0.226562 L 56.335938 3.644531 L 51.265625 3.644531 L 51.265625 6.121094 L 55.96875 6.121094 L 55.96875 9.527344 L 51.265625 9.527344 Z M 68.191406 0.171875 L 73.371094 15.957031 L 68.730469 15.957031 L 67.964844 13.003906 L 62.855469 13.003906 L 62.066406 15.957031 L 57.398438 15.957031 L 62.519531 0.171875 Z M 63.738281 9.527344 L 67.082031 9.527344 C 66.09375 5.796875 65.53125 3.542969 65.386719 2.761719 C 65.226562 3.75 64.679688 6.003906 63.738281 9.527344 Z M 80.390625 10.230469 L 79.316406 10.230469 L 79.316406 15.957031 L 75.066406 15.957031 L 75.066406 0.226562 L 80.210938 0.226562 C 84.484375 0.226562 86.625 1.777344 86.625 4.878906 C 86.625 6.703125 85.734375 8.113281 83.949219 9.109375 L 88.53125 15.957031 L 83.722656 15.957031 Z M 80.152344 3.441406 L 79.316406 3.441406 L 79.316406 7.039062 L 80.105469 7.039062 C 81.59375 7.039062 82.335938 6.382812 82.335938 5.066406 C 82.335938 3.984375 81.609375 3.441406 80.152344 3.441406 Z M 101.128906 0.226562 L 104.910156 0.226562 L 104.910156 15.957031 L 99.347656 15.957031 L 93.605469 4.878906 L 93.511719 4.878906 C 93.644531 6.679688 93.714844 8.007812 93.714844 8.867188 L 93.714844 15.957031 L 89.953125 15.957031 L 89.953125 0.226562 L 95.503906 0.226562 L 101.214844 11.160156 L 101.285156 11.160156 C 101.179688 9.632812 101.128906 8.359375 101.128906 7.335938 Z M 112.5625 0.226562 L 112.5625 15.957031 L 108.300781 15.957031 L 108.300781 0.226562 Z M 127.136719 0.226562 L 130.925781 0.226562 L 130.925781 15.957031 L 125.359375 15.957031 L 119.617188 4.878906 L 119.523438 4.878906 C 119.660156 6.679688 119.726562 8.007812 119.726562 8.867188 L 119.726562 15.957031 L 115.960938 15.957031 L 115.960938 0.226562 L 121.515625 0.226562 L 127.222656 11.160156 L 127.292969 11.160156 C 127.1875 9.632812 127.136719 8.359375 127.136719 7.335938 Z M 143.421875 10.027344 L 140.617188 10.027344 L 140.617188 6.753906 L 147.398438 6.753906 L 147.398438 15.226562 C 145.566406 15.859375 143.542969 16.171875 141.332031 16.171875 C 138.921875 16.171875 137.050781 15.472656 135.722656 14.070312 C 134.398438 12.667969 133.738281 10.679688 133.738281 8.101562 C 133.738281 5.53125 134.460938 3.539062 135.902344 2.121094 C 137.339844 0.707031 139.371094 0 141.988281 0 C 143.882812 0 145.578125 0.332031 147.078125 0.992188 L 145.734375 4.324219 C 144.613281 3.769531 143.402344 3.488281 142.101562 3.488281 C 140.800781 3.488281 139.8125 3.890625 139.136719 4.699219 C 138.460938 5.503906 138.121094 6.648438 138.121094 8.136719 C 138.121094 9.621094 138.425781 10.75 139.039062 11.519531 C 139.652344 12.292969 140.535156 12.679688 141.691406 12.679688 C 142.335938 12.679688 142.910156 12.617188 143.421875 12.488281 Z M 143.421875 10.027344 "/>
</g>
</g>
</svg>
