<?xml version="1.0" encoding="UTF-8"?>
<svg xmlns="http://www.w3.org/2000/svg" xmlns:xlink="http://www.w3.org/1999/xlink" width="150px" height="150px" viewBox="0 0 150 150" version="1.1">
<g id="surface1">
<path style=" stroke:none;fill-rule:nonzero;fill:rgb(100%,100%,100%);fill-opacity:1;" d="M 48.925781 6.621094 C 42.714844 8.875 40.75 16.40625 45.117188 21.179688 C 46.085938 22.234375 47.109375 23 48.195312 23.46875 L 49.804688 24.171875 L 49.804688 34.277344 L 44.765625 34.277344 C 40.046875 34.277344 39.578125 34.335938 38.234375 34.980469 C 36.476562 35.800781 35.683594 36.621094 34.890625 38.378906 C 34.367188 39.550781 34.277344 40.3125 34.277344 44.734375 L 34.277344 49.804688 L 24.171875 49.804688 L 23.46875 48.195312 C 22.5 45.96875 20.125 43.828125 17.960938 43.183594 C 13.535156 41.894531 8.992188 43.886719 7 47.988281 C 5.976562 50.097656 6.007812 53.46875 7.117188 55.722656 C 8.730469 58.976562 11.570312 60.761719 15.234375 60.761719 C 17.050781 60.789062 17.726562 60.644531 19.101562 59.96875 C 21.0625 59.003906 22.910156 57.070312 23.613281 55.195312 L 24.109375 53.90625 L 34.277344 53.90625 L 34.277344 65.332031 L 27.832031 65.332031 C 21.765625 65.332031 21.359375 65.359375 20.800781 65.917969 C 20.070312 66.648438 20.039062 67.703125 20.773438 68.585938 C 21.328125 69.289062 21.414062 69.289062 27.804688 69.375 L 34.277344 69.460938 L 34.277344 80.539062 L 27.804688 80.625 C 21.414062 80.710938 21.328125 80.710938 20.773438 81.414062 C 20.039062 82.296875 20.070312 83.351562 20.800781 84.082031 C 21.359375 84.640625 21.765625 84.667969 27.832031 84.667969 L 34.277344 84.667969 L 34.277344 96.09375 L 24.109375 96.09375 L 23.613281 94.804688 C 22.910156 92.929688 21.0625 90.996094 19.101562 90.03125 C 17.726562 89.355469 17.050781 89.210938 15.234375 89.238281 C 11.570312 89.238281 8.730469 91.023438 7.117188 94.277344 C 6.007812 96.53125 5.976562 99.902344 7 102.011719 C 8.992188 106.113281 13.535156 108.105469 17.960938 106.816406 C 20.125 106.171875 22.5 104.03125 23.46875 101.804688 L 24.171875 100.195312 L 34.277344 100.195312 L 34.277344 105.234375 C 34.277344 109.953125 34.335938 110.421875 34.980469 111.765625 C 35.800781 113.523438 36.621094 114.316406 38.378906 115.109375 C 39.550781 115.632812 40.3125 115.722656 44.765625 115.722656 L 49.804688 115.722656 L 49.804688 125.828125 L 48.195312 126.53125 C 45.96875 127.5 43.828125 129.875 43.183594 132.039062 C 41.894531 136.4375 43.914062 141.007812 48.015625 143.027344 C 50.097656 144.023438 53.496094 143.964844 55.722656 142.882812 C 58.976562 141.269531 60.761719 138.429688 60.761719 134.765625 C 60.789062 132.949219 60.644531 132.273438 59.96875 130.898438 C 59.003906 128.9375 57.070312 127.089844 55.195312 126.386719 L 53.90625 125.890625 L 53.90625 115.722656 L 65.332031 115.722656 L 65.332031 122.167969 C 65.332031 128.234375 65.359375 128.640625 65.917969 129.199219 C 66.648438 129.929688 67.703125 129.960938 68.585938 129.226562 C 69.289062 128.671875 69.289062 128.585938 69.375 122.195312 L 69.460938 115.722656 L 80.539062 115.722656 L 80.625 122.195312 C 80.710938 128.585938 80.710938 128.671875 81.414062 129.226562 C 82.296875 129.960938 83.351562 129.929688 84.082031 129.199219 C 84.640625 128.640625 84.667969 128.234375 84.667969 122.167969 L 84.667969 115.722656 L 96.09375 115.722656 L 96.09375 125.890625 L 94.804688 126.386719 C 92.929688 127.089844 90.996094 128.9375 90.03125 130.898438 C 89.355469 132.273438 89.210938 132.949219 89.238281 134.765625 C 89.238281 138.429688 91.023438 141.269531 94.277344 142.882812 C 95.683594 143.585938 96.328125 143.703125 98.289062 143.703125 C 100.253906 143.703125 100.867188 143.554688 102.15625 142.882812 C 106.230469 140.773438 108.078125 136.4375 106.816406 132.070312 C 106.171875 129.875 104.03125 127.5 101.804688 126.53125 L 100.195312 125.828125 L 100.195312 115.722656 L 105.265625 115.722656 C 109.6875 115.722656 110.449219 115.632812 111.621094 115.109375 C 113.378906 114.316406 114.199219 113.523438 115.019531 111.765625 C 115.664062 110.421875 115.722656 109.953125 115.722656 105.234375 L 115.722656 100.195312 L 125.828125 100.195312 L 126.53125 101.804688 C 127.441406 103.945312 129.84375 106.171875 131.894531 106.789062 C 135.148438 107.753906 138.28125 107.078125 140.683594 104.941406 C 142.851562 102.976562 143.671875 101.164062 143.671875 98.289062 C 143.703125 96.296875 143.585938 95.683594 142.882812 94.277344 C 141.269531 91.023438 138.429688 89.238281 134.765625 89.238281 C 132.949219 89.210938 132.273438 89.355469 130.898438 90.03125 C 128.9375 90.996094 127.089844 92.929688 126.386719 94.804688 L 125.890625 96.09375 L 115.722656 96.09375 L 115.722656 84.667969 L 122.167969 84.667969 C 128.234375 84.667969 128.640625 84.640625 129.199219 84.082031 C 129.929688 83.351562 129.960938 82.296875 129.226562 81.414062 C 128.671875 80.710938 128.585938 80.710938 122.195312 80.625 L 115.722656 80.539062 L 115.722656 69.460938 L 122.195312 69.375 C 128.585938 69.289062 128.671875 69.289062 129.226562 68.585938 C 129.960938 67.703125 129.929688 66.648438 129.199219 65.917969 C 128.640625 65.359375 128.234375 65.332031 122.167969 65.332031 L 115.722656 65.332031 L 115.722656 53.90625 L 125.890625 53.90625 L 126.386719 55.195312 C 127.089844 57.070312 128.9375 59.003906 130.898438 59.96875 C 134.355469 61.671875 138.808594 60.789062 141.359375 57.949219 C 143.085938 56.046875 143.703125 54.433594 143.703125 51.710938 C 143.671875 49.863281 143.554688 49.070312 143 47.988281 C 141.007812 43.886719 136.464844 41.894531 132.039062 43.183594 C 129.875 43.828125 127.5 45.96875 126.53125 48.195312 L 125.828125 49.804688 L 115.722656 49.804688 L 115.722656 44.734375 C 115.722656 40.046875 115.664062 39.578125 115.019531 38.234375 C 114.199219 36.476562 113.378906 35.683594 111.621094 34.890625 C 110.449219 34.367188 109.6875 34.277344 105.265625 34.277344 L 100.195312 34.277344 L 100.195312 24.171875 L 101.804688 23.46875 C 104.03125 22.5 106.171875 20.125 106.816406 17.960938 C 108.105469 13.535156 106.113281 8.992188 102.011719 7 C 100.109375 6.0625 96.5625 6.035156 94.601562 6.945312 C 88.5625 9.695312 87.273438 17.636719 92.167969 21.945312 C 92.898438 22.585938 94.101562 23.351562 94.804688 23.613281 L 96.09375 24.109375 L 96.09375 34.277344 L 84.667969 34.277344 L 84.667969 27.832031 C 84.667969 21.765625 84.640625 21.359375 84.082031 20.800781 C 83.351562 20.070312 82.296875 20.039062 81.414062 20.773438 C 80.710938 21.328125 80.710938 21.414062 80.625 27.804688 L 80.539062 34.277344 L 69.460938 34.277344 L 69.375 27.804688 C 69.289062 21.414062 69.289062 21.328125 68.585938 20.773438 C 67.703125 20.039062 66.648438 20.070312 65.917969 20.800781 C 65.359375 21.359375 65.332031 21.765625 65.332031 27.832031 L 65.332031 34.277344 L 53.90625 34.277344 L 53.90625 24.109375 L 55.195312 23.613281 C 57.070312 22.910156 59.003906 21.0625 59.96875 19.101562 C 61.671875 15.644531 60.789062 11.191406 57.949219 8.640625 C 57.304688 8.027344 56.164062 7.296875 55.398438 6.945312 C 53.613281 6.152344 50.625 6.007812 48.925781 6.621094 Z M 53.703125 10.664062 C 54.929688 11.164062 56.132812 12.597656 56.570312 14.0625 C 57.453125 16.960938 54.875 20.214844 51.765625 20.214844 C 50.273438 20.214844 48.3125 19.042969 47.546875 17.695312 C 45.234375 13.652344 49.421875 8.875 53.703125 10.664062 Z M 100.515625 10.929688 C 104.589844 13.09375 103.652344 19.1875 99.082031 20.097656 C 95.683594 20.773438 92.429688 17.3125 93.429688 14.0625 C 94.394531 10.78125 97.585938 9.375 100.515625 10.929688 Z M 110.773438 39.226562 L 111.621094 40.078125 L 111.621094 109.921875 L 110.773438 110.773438 L 109.921875 111.621094 L 40.078125 111.621094 L 39.226562 110.773438 L 38.378906 109.921875 L 38.378906 40.078125 L 39.226562 39.226562 L 40.078125 38.378906 L 109.921875 38.378906 Z M 17.695312 47.546875 C 19.042969 48.3125 20.214844 50.273438 20.214844 51.765625 C 20.214844 54.875 16.960938 57.453125 14.0625 56.570312 C 10.8125 55.605469 9.40625 52.46875 10.929688 49.511719 C 12.15625 47.050781 15.265625 46.140625 17.695312 47.546875 Z M 137.226562 47.546875 C 138.574219 48.3125 139.746094 50.273438 139.746094 51.765625 C 139.746094 54.875 136.492188 57.453125 133.59375 56.570312 C 130.34375 55.605469 128.9375 52.46875 130.460938 49.511719 C 131.6875 47.050781 134.796875 46.140625 137.226562 47.546875 Z M 17.140625 93.71875 C 20.097656 95.070312 21.035156 98.171875 19.304688 100.984375 C 17.578125 103.769531 12.890625 103.769531 11.164062 100.984375 C 9.433594 98.171875 10.371094 95.070312 13.328125 93.71875 C 14.796875 93.046875 15.671875 93.046875 17.140625 93.71875 Z M 136.671875 93.71875 C 139.628906 95.070312 140.566406 98.171875 138.835938 100.984375 C 137.109375 103.769531 132.421875 103.769531 130.695312 100.984375 C 128.964844 98.171875 129.902344 95.070312 132.859375 93.71875 C 134.328125 93.046875 135.203125 93.046875 136.671875 93.71875 Z M 53.703125 130.195312 C 54.929688 130.695312 56.132812 132.128906 56.570312 133.59375 C 57.453125 136.492188 54.875 139.746094 51.765625 139.746094 C 50.273438 139.746094 48.3125 138.574219 47.546875 137.226562 C 45.234375 133.183594 49.421875 128.40625 53.703125 130.195312 Z M 100.515625 130.460938 C 103.976562 132.304688 103.976562 137.226562 100.515625 139.070312 C 99.8125 139.453125 98.789062 139.746094 98.234375 139.746094 C 95.070312 139.746094 92.546875 136.492188 93.429688 133.507812 C 94.367188 130.3125 97.617188 128.9375 100.515625 130.460938 Z M 100.515625 130.460938 "/>
<path style=" stroke:none;fill-rule:nonzero;fill:rgb(100%,100%,100%);fill-opacity:1;" d="M 46.640625 46.671875 L 45.996094 47.34375 L 45.996094 102.742188 L 46.671875 103.359375 L 47.34375 104.003906 L 102.742188 104.003906 L 103.359375 103.328125 L 104.003906 102.65625 L 104.003906 47.257812 L 103.328125 46.640625 L 102.65625 45.996094 L 47.257812 45.996094 Z M 99.902344 75 L 99.902344 99.902344 L 50.097656 99.902344 L 50.097656 50.097656 L 99.902344 50.097656 Z M 99.902344 75 "/>
<path style=" stroke:none;fill-rule:nonzero;fill:rgb(100%,100%,100%);fill-opacity:1;" d="M 65.1875 64.277344 C 63.429688 65.097656 62.636719 65.917969 61.84375 67.675781 C 61.289062 68.90625 61.230469 69.578125 61.230469 77.078125 C 61.230469 85.136719 61.230469 85.164062 61.90625 85.78125 C 62.78125 86.601562 63.898438 86.601562 64.6875 85.75 C 65.273438 85.109375 65.332031 84.785156 65.332031 81.0625 L 65.332031 77.050781 L 75.292969 77.050781 L 75.292969 81.09375 C 75.292969 84.960938 75.320312 85.195312 75.96875 85.78125 C 76.84375 86.601562 77.960938 86.601562 78.75 85.75 C 79.367188 85.078125 79.394531 84.875 79.394531 77.023438 C 79.394531 69.199219 79.367188 68.964844 78.691406 67.53125 C 77.871094 65.773438 77.050781 64.980469 75.292969 64.1875 C 74.179688 63.691406 73.359375 63.574219 70.3125 63.574219 C 67.0625 63.574219 66.476562 63.664062 65.1875 64.277344 Z M 74.445312 68.523438 C 75.203125 69.289062 75.292969 69.578125 75.292969 71.164062 L 75.292969 72.949219 L 65.332031 72.949219 L 65.332031 71.164062 C 65.332031 69.578125 65.421875 69.289062 66.179688 68.523438 C 67.03125 67.675781 67.089844 67.675781 70.3125 67.675781 C 73.535156 67.675781 73.59375 67.675781 74.445312 68.523438 Z M 74.445312 68.523438 "/>
<path style=" stroke:none;fill-rule:nonzero;fill:rgb(100%,100%,100%);fill-opacity:1;" d="M 85.3125 64.25 C 84.667969 64.921875 84.667969 65.070312 84.667969 75.03125 L 84.667969 85.164062 L 85.34375 85.78125 C 86.21875 86.601562 87.335938 86.601562 88.125 85.75 C 88.769531 85.078125 88.769531 84.929688 88.769531 74.96875 L 88.769531 64.835938 L 88.09375 64.21875 C 87.21875 63.398438 86.101562 63.398438 85.3125 64.25 Z M 85.3125 64.25 "/>
</g>
</svg>
