<?xml version="1.0" encoding="UTF-8"?>
<svg xmlns="http://www.w3.org/2000/svg" xmlns:xlink="http://www.w3.org/1999/xlink" width="150px" height="29px" viewBox="0 0 149 29" version="1.1">
<defs>
<clipPath id="clip1">
  <path d="M 34.941406 8.226562 L 148.648438 8.226562 L 148.648438 20.738281 L 34.941406 20.738281 Z M 34.941406 8.226562 "/>
</clipPath>
<clipPath id="clip2">
  <path d="M 0.171875 0.0273438 L 29.039062 0.0273438 L 29.039062 28.9375 L 0.171875 28.9375 Z M 0.171875 0.0273438 "/>
</clipPath>
<clipPath id="clip3">
  <path d="M 7.789062 7.546875 L 21.421875 7.546875 L 21.421875 21.417969 L 7.789062 21.417969 Z M 7.789062 7.546875 "/>
</clipPath>
</defs>
<g id="surface1">
<g clip-path="url(#clip1)" clip-rule="nonzero">
<path style=" stroke:none;fill-rule:nonzero;fill:rgb(100%,100%,100%);fill-opacity:1;" d="M 43.304688 8.355469 L 47.3125 20.570312 L 43.722656 20.570312 L 43.128906 18.289062 L 39.179688 18.289062 L 38.566406 20.570312 L 34.957031 20.570312 L 38.917969 8.355469 Z M 39.859375 15.597656 L 42.445312 15.597656 C 41.683594 12.710938 41.246094 10.964844 41.136719 10.363281 C 41.011719 11.125 40.589844 12.871094 39.859375 15.597656 Z M 51.917969 8.398438 L 51.917969 20.570312 L 48.625 20.570312 L 48.625 8.398438 Z M 58.851562 13.96875 L 58.851562 16.558594 L 54.160156 16.558594 L 54.160156 13.96875 Z M 69.046875 17.917969 L 69.046875 20.570312 L 61.085938 20.570312 L 61.085938 8.398438 L 64.375 8.398438 L 64.375 17.917969 Z M 74.28125 17.890625 L 78.203125 17.890625 L 78.203125 20.570312 L 70.992188 20.570312 L 70.992188 8.398438 L 78.203125 8.398438 L 78.203125 11.046875 L 74.28125 11.046875 L 74.28125 12.960938 L 77.917969 12.960938 L 77.917969 15.597656 L 74.28125 15.597656 Z M 87.371094 8.355469 L 91.378906 20.570312 L 87.789062 20.570312 L 87.195312 18.289062 L 83.242188 18.289062 L 82.632812 20.570312 L 79.023438 20.570312 L 82.984375 8.355469 Z M 83.925781 15.597656 L 86.511719 15.597656 C 85.75 12.710938 85.3125 10.964844 85.203125 10.363281 C 85.082031 11.125 84.65625 12.871094 83.925781 15.597656 Z M 96.804688 16.140625 L 95.976562 16.140625 L 95.976562 20.570312 L 92.691406 20.570312 L 92.691406 8.398438 L 96.667969 8.398438 C 99.972656 8.398438 101.628906 9.601562 101.628906 12 C 101.628906 13.410156 100.9375 14.503906 99.558594 15.273438 L 103.101562 20.570312 L 99.382812 20.570312 Z M 96.625 10.886719 L 95.976562 10.886719 L 95.976562 13.671875 L 96.585938 13.671875 C 97.734375 13.671875 98.308594 13.164062 98.308594 12.148438 C 98.308594 11.308594 97.75 10.886719 96.625 10.886719 Z M 112.84375 8.398438 L 115.769531 8.398438 L 115.769531 20.570312 L 111.46875 20.570312 L 107.027344 12 L 106.953125 12 C 107.058594 13.390625 107.109375 14.421875 107.109375 15.085938 L 107.109375 20.570312 L 104.203125 20.570312 L 104.203125 8.398438 L 108.496094 8.398438 L 112.910156 16.859375 L 112.964844 16.859375 C 112.886719 15.679688 112.84375 14.691406 112.84375 13.902344 Z M 121.6875 8.398438 L 121.6875 20.570312 L 118.394531 20.570312 L 118.394531 8.398438 Z M 132.960938 8.398438 L 135.890625 8.398438 L 135.890625 20.570312 L 131.585938 20.570312 L 127.144531 12 L 127.070312 12 C 127.175781 13.390625 127.230469 14.421875 127.230469 15.085938 L 127.230469 20.570312 L 124.316406 20.570312 L 124.316406 8.398438 L 128.613281 8.398438 L 133.027344 16.859375 L 133.082031 16.859375 C 133 15.679688 132.960938 14.691406 132.960938 13.902344 Z M 145.554688 15.984375 L 143.386719 15.984375 L 143.386719 13.453125 L 148.628906 13.453125 L 148.628906 20.007812 C 147.210938 20.496094 145.648438 20.738281 143.941406 20.738281 C 142.074219 20.738281 140.628906 20.195312 139.601562 19.109375 C 138.578125 18.027344 138.066406 16.488281 138.066406 14.496094 C 138.066406 12.503906 138.625 10.960938 139.738281 9.867188 C 140.851562 8.773438 142.421875 8.226562 144.449219 8.226562 C 145.910156 8.226562 147.222656 8.480469 148.382812 8.992188 L 147.34375 11.570312 C 146.476562 11.140625 145.542969 10.925781 144.535156 10.925781 C 143.527344 10.925781 142.761719 11.238281 142.242188 11.859375 C 141.71875 12.484375 141.457031 13.371094 141.457031 14.519531 C 141.457031 15.667969 141.691406 16.542969 142.164062 17.140625 C 142.640625 17.738281 143.324219 18.035156 144.21875 18.035156 C 144.714844 18.035156 145.160156 17.984375 145.554688 17.890625 Z M 145.554688 15.984375 "/>
</g>
<g clip-path="url(#clip2)" clip-rule="nonzero">
<path style="fill-rule:nonzero;fill:rgb(100%,100%,100%);fill-opacity:1;stroke-width:1;stroke-linecap:butt;stroke-linejoin:miter;stroke:rgb(100%,100%,100%);stroke-opacity:1;stroke-miterlimit:4;" d="M 0.00624602 50.204571 C 0.00624602 22.485478 22.479561 0.00357048 50.211143 0.00357048 C 77.942725 0.00357048 100.41604 22.485478 100.41604 50.204571 C 100.41604 77.937233 77.942725 100.41914 50.211143 100.41914 C 22.479561 100.41914 0.00624602 77.937233 0.00624602 50.204571 Z M 50.211143 96.498035 C 75.768765 96.498035 96.502912 75.779946 96.502912 50.204571 C 96.502912 24.642764 75.768765 3.924676 50.211143 3.924676 C 24.639934 3.924676 3.919375 24.642764 3.919375 50.204571 C 3.919375 75.779946 24.639934 96.498035 50.211143 96.498035 Z M 50.211143 96.498035 " transform="matrix(0.287494,0,0,0.287905,0.170079,0.0263158)"/>
</g>
<g clip-path="url(#clip3)" clip-rule="nonzero">
<path style=" stroke:none;fill-rule:nonzero;fill:rgb(100%,100%,100%);fill-opacity:1;" d="M 9.117188 16.570312 C 9.074219 16.71875 9.046875 16.875 9.046875 17.039062 C 9.046875 17.734375 9.484375 18.335938 10.109375 18.605469 L 10.109375 18.765625 C 10.109375 19.78125 10.976562 20.605469 12.039062 20.605469 C 12.167969 20.605469 12.296875 20.589844 12.421875 20.566406 C 12.660156 21.074219 13.1875 21.417969 13.816406 21.417969 C 14.351562 21.417969 14.792969 21.164062 15.039062 20.757812 L 15.925781 20.757812 C 16.046875 20.757812 16.144531 20.65625 16.144531 20.535156 L 16.144531 19.539062 C 16.769531 19.40625 17.375 19.15625 17.914062 18.804688 L 18.621094 19.511719 C 18.660156 19.550781 18.71875 19.574219 18.777344 19.574219 C 18.835938 19.574219 18.890625 19.550781 18.929688 19.511719 L 20.175781 18.265625 C 20.261719 18.175781 20.261719 18.039062 20.175781 17.953125 L 19.46875 17.246094 C 19.820312 16.707031 20.070312 16.097656 20.203125 15.472656 L 21.203125 15.472656 C 21.320312 15.472656 21.421875 15.375 21.421875 15.253906 L 21.421875 13.492188 C 21.421875 13.371094 21.320312 13.269531 21.203125 13.269531 L 20.203125 13.269531 C 20.070312 12.644531 19.820312 12.039062 19.46875 11.496094 L 20.175781 10.789062 C 20.261719 10.707031 20.261719 10.566406 20.175781 10.480469 L 18.929688 9.234375 C 18.847656 9.152344 18.703125 9.152344 18.621094 9.234375 L 17.914062 9.941406 C 17.375 9.589844 16.769531 9.335938 16.144531 9.207031 L 16.144531 8.207031 C 16.144531 8.085938 16.046875 7.988281 15.925781 7.988281 L 14.851562 7.988281 C 14.589844 7.710938 14.226562 7.546875 13.808594 7.546875 C 13.261719 7.546875 12.78125 7.835938 12.511719 8.269531 L 12.105469 8.269531 C 11.042969 8.269531 10.175781 9.097656 10.175781 10.117188 L 10.175781 10.179688 C 9.257812 10.261719 8.53125 11.035156 8.53125 11.976562 C 8.53125 12.375 8.664062 12.742188 8.878906 13.039062 C 8.242188 13.363281 7.789062 14.058594 7.789062 14.773438 C 7.789062 15.585938 8.34375 16.316406 9.117188 16.570312 Z M 15.703125 8.425781 L 15.703125 9.386719 C 15.703125 9.492188 15.78125 9.585938 15.886719 9.605469 C 16.574219 9.722656 17.242188 10 17.816406 10.402344 C 17.902344 10.464844 18.023438 10.453125 18.097656 10.378906 L 18.777344 9.699219 L 19.710938 10.636719 L 19.03125 11.3125 C 18.957031 11.390625 18.945312 11.507812 19.007812 11.597656 C 19.410156 12.171875 19.6875 12.839844 19.804688 13.527344 C 19.824219 13.632812 19.914062 13.710938 20.023438 13.710938 L 20.980469 13.710938 L 20.980469 15.03125 L 20.023438 15.03125 C 19.914062 15.03125 19.824219 15.109375 19.804688 15.214844 C 19.6875 15.902344 19.410156 16.570312 19.007812 17.148438 C 18.945312 17.234375 18.957031 17.351562 19.03125 17.429688 L 19.710938 18.109375 L 18.777344 19.042969 L 18.097656 18.363281 C 18.023438 18.289062 17.902344 18.277344 17.816406 18.339844 C 17.238281 18.746094 16.574219 19.019531 15.886719 19.140625 C 15.78125 19.160156 15.703125 19.25 15.703125 19.355469 L 15.703125 20.316406 L 15.21875 20.316406 C 15.246094 20.195312 15.265625 20.066406 15.265625 19.933594 L 15.265625 17.664062 C 16.980469 17.550781 18.34375 16.117188 18.34375 14.371094 C 18.34375 12.625 16.980469 11.195312 15.265625 11.082031 L 15.265625 9.070312 C 15.265625 8.835938 15.21875 8.621094 15.136719 8.425781 Z M 15.265625 17.222656 L 15.265625 11.519531 C 16.738281 11.632812 17.902344 12.867188 17.902344 14.371094 C 17.902344 15.875 16.738281 17.109375 15.265625 17.222656 Z M 9.203125 13.378906 C 9.515625 13.628906 9.90625 13.78125 10.335938 13.78125 C 10.457031 13.78125 10.554688 13.679688 10.554688 13.558594 C 10.554688 13.4375 10.457031 13.339844 10.335938 13.339844 C 9.582031 13.339844 8.972656 12.730469 8.972656 11.976562 C 8.972656 11.222656 9.582031 10.609375 10.335938 10.609375 C 10.699219 10.609375 11.039062 10.753906 11.296875 11.011719 C 11.382812 11.097656 11.523438 11.097656 11.609375 11.011719 C 11.695312 10.925781 11.695312 10.785156 11.609375 10.699219 C 11.335938 10.425781 10.992188 10.253906 10.617188 10.195312 L 10.617188 10.117188 C 10.617188 9.339844 11.285156 8.710938 12.105469 8.710938 L 12.324219 8.710938 C 12.296875 8.828125 12.277344 8.953125 12.277344 9.078125 C 12.277344 9.148438 12.285156 9.214844 12.292969 9.28125 C 12.304688 9.402344 12.414062 9.492188 12.535156 9.476562 C 12.65625 9.460938 12.742188 9.351562 12.726562 9.230469 C 12.722656 9.183594 12.71875 9.132812 12.71875 9.078125 C 12.71875 8.476562 13.207031 7.988281 13.808594 7.988281 C 14.398438 7.988281 14.824219 8.441406 14.824219 9.070312 L 14.824219 19.933594 C 14.824219 20.546875 14.410156 20.976562 13.816406 20.976562 C 13.199219 20.976562 12.71875 20.523438 12.71875 19.945312 C 12.71875 19.789062 12.75 19.632812 12.816406 19.492188 C 12.863281 19.382812 12.816406 19.25 12.707031 19.203125 C 12.59375 19.152344 12.464844 19.199219 12.414062 19.3125 C 12.324219 19.511719 12.277344 19.722656 12.277344 19.945312 C 12.277344 20.011719 12.285156 20.078125 12.292969 20.144531 C 12.210938 20.160156 12.125 20.167969 12.039062 20.167969 C 11.21875 20.167969 10.550781 19.539062 10.550781 18.765625 L 10.550781 18.734375 C 10.648438 18.75 10.75 18.757812 10.851562 18.757812 C 11.128906 18.757812 11.390625 18.699219 11.640625 18.585938 C 11.75 18.535156 11.796875 18.402344 11.746094 18.292969 C 11.695312 18.183594 11.566406 18.136719 11.453125 18.1875 C 11.265625 18.273438 11.0625 18.320312 10.851562 18.320312 C 10.097656 18.320312 9.488281 17.746094 9.488281 17.039062 C 9.488281 16.375 10.039062 15.8125 10.742188 15.757812 C 10.863281 15.75 10.953125 15.644531 10.945312 15.523438 C 10.933594 15.402344 10.832031 15.3125 10.707031 15.320312 C 10.109375 15.367188 9.59375 15.695312 9.300781 16.164062 C 8.75 16 8.230469 15.46875 8.230469 14.773438 C 8.230469 14.171875 8.644531 13.597656 9.203125 13.378906 Z M 9.203125 13.378906 "/>
</g>
<path style=" stroke:none;fill-rule:nonzero;fill:rgb(100%,100%,100%);fill-opacity:1;" d="M 11.195312 12.488281 C 11.300781 12.507812 11.421875 12.515625 11.554688 12.515625 C 12.25 12.515625 13.226562 12.210938 13.464844 11.015625 C 13.488281 10.894531 13.410156 10.777344 13.292969 10.753906 C 13.171875 10.730469 13.058594 10.808594 13.035156 10.929688 C 12.761719 12.285156 11.328125 12.066406 11.269531 12.054688 C 11.148438 12.035156 11.035156 12.113281 11.015625 12.234375 C 10.996094 12.355469 11.074219 12.46875 11.195312 12.488281 Z M 11.195312 12.488281 "/>
<path style=" stroke:none;fill-rule:nonzero;fill:rgb(100%,100%,100%);fill-opacity:1;" d="M 12.828125 16.539062 C 12.355469 16.265625 11.867188 16.394531 11.84375 16.402344 C 11.730469 16.433594 11.660156 16.554688 11.691406 16.671875 C 11.722656 16.785156 11.84375 16.855469 11.960938 16.824219 C 12.050781 16.800781 12.84375 16.628906 13.128906 17.71875 C 13.15625 17.816406 13.246094 17.882812 13.34375 17.882812 C 13.363281 17.882812 13.378906 17.878906 13.398438 17.875 C 13.515625 17.84375 13.585938 17.722656 13.554688 17.605469 C 13.421875 17.097656 13.175781 16.742188 12.828125 16.539062 Z M 12.828125 16.539062 "/>
</g>
</svg>
