<?xml version="1.0" encoding="UTF-8"?>
<svg xmlns="http://www.w3.org/2000/svg" xmlns:xlink="http://www.w3.org/1999/xlink" width="475px" height="91px" viewBox="0 0 472 91" version="1.1">
<defs>
<clipPath id="clip1">
  <path d="M 112.144531 25.816406 L 468.15625 25.816406 L 468.15625 65.074219 L 112.144531 65.074219 Z M 112.144531 25.816406 "/>
</clipPath>
<clipPath id="clip2">
  <path d="M 3.28125 0.0859375 L 93.667969 0.0859375 L 93.667969 90.804688 L 3.28125 90.804688 Z M 3.28125 0.0859375 "/>
</clipPath>
<clipPath id="clip3">
  <path d="M 27.128906 23.683594 L 69.816406 23.683594 L 69.816406 67.207031 L 27.128906 67.207031 Z M 27.128906 23.683594 "/>
</clipPath>
</defs>
<g id="surface1">
<g clip-path="url(#clip1)" clip-rule="nonzero">
<path style=" stroke:none;fill-rule:nonzero;fill:rgb(100%,100%,100%);fill-opacity:1;" d="M 138.328125 26.21875 L 150.878906 64.546875 L 139.636719 64.546875 L 137.777344 57.390625 L 125.417969 57.390625 L 123.496094 64.546875 L 112.191406 64.546875 L 124.597656 26.21875 Z M 127.542969 48.945312 L 135.640625 48.945312 C 133.253906 39.886719 131.882812 34.40625 131.542969 32.519531 C 131.152344 34.910156 129.828125 40.390625 127.542969 48.945312 Z M 165.296875 26.355469 L 165.296875 64.546875 L 154.984375 64.546875 L 154.984375 26.355469 Z M 187.007812 43.832031 L 187.007812 51.957031 L 172.316406 51.957031 L 172.316406 43.832031 Z M 218.925781 56.222656 L 218.925781 64.546875 L 194 64.546875 L 194 26.355469 L 204.300781 26.355469 L 204.300781 56.222656 Z M 235.3125 56.140625 L 247.59375 56.140625 L 247.59375 64.546875 L 225.015625 64.546875 L 225.015625 26.355469 L 247.59375 26.355469 L 247.59375 34.664062 L 235.3125 34.664062 L 235.3125 40.671875 L 246.703125 40.671875 L 246.703125 48.945312 L 235.3125 48.945312 Z M 276.300781 26.21875 L 288.847656 64.546875 L 277.609375 64.546875 L 275.746094 57.390625 L 263.371094 57.390625 L 261.460938 64.546875 L 250.164062 64.546875 L 262.5625 26.21875 Z M 265.507812 48.945312 L 273.609375 48.945312 C 271.226562 39.886719 269.851562 34.40625 269.511719 32.519531 C 269.132812 34.910156 267.800781 40.390625 265.507812 48.945312 Z M 305.835938 50.648438 L 303.242188 50.648438 L 303.242188 64.546875 L 292.957031 64.546875 L 292.957031 26.355469 L 305.40625 26.355469 C 315.75 26.355469 320.9375 30.128906 320.9375 37.65625 C 320.9375 42.078125 318.773438 45.515625 314.457031 47.929688 L 325.550781 64.546875 L 313.90625 64.546875 Z M 305.269531 34.160156 L 303.242188 34.160156 L 303.242188 42.902344 L 305.148438 42.902344 C 308.746094 42.902344 310.542969 41.308594 310.542969 38.121094 C 310.542969 35.488281 308.796875 34.160156 305.269531 34.160156 Z M 356.050781 26.355469 L 365.210938 26.355469 L 365.210938 64.546875 L 351.746094 64.546875 L 337.839844 37.65625 L 337.609375 37.65625 C 337.941406 42.019531 338.097656 45.253906 338.097656 47.335938 L 338.097656 64.546875 L 329 64.546875 L 329 26.355469 L 342.441406 26.355469 L 356.257812 52.90625 L 356.429688 52.90625 C 356.183594 49.203125 356.050781 46.101562 356.050781 43.625 Z M 383.738281 26.355469 L 383.738281 64.546875 L 373.433594 64.546875 L 373.433594 26.355469 Z M 419.039062 26.355469 L 428.210938 26.355469 L 428.210938 64.546875 L 414.734375 64.546875 L 400.828125 37.65625 L 400.597656 37.65625 C 400.921875 42.019531 401.09375 45.253906 401.09375 47.335938 L 401.09375 64.546875 L 391.972656 64.546875 L 391.972656 26.355469 L 405.425781 26.355469 L 419.246094 52.90625 L 419.417969 52.90625 C 419.15625 49.203125 419.039062 46.101562 419.039062 43.625 Z M 458.46875 50.15625 L 451.683594 50.15625 L 451.683594 42.214844 L 468.089844 42.214844 L 468.089844 62.785156 C 463.652344 64.316406 458.761719 65.074219 453.414062 65.074219 C 447.570312 65.074219 443.042969 63.371094 439.828125 59.964844 C 436.621094 56.570312 435.023438 51.738281 435.023438 45.484375 C 435.023438 39.234375 436.769531 34.394531 440.253906 30.960938 C 443.746094 27.53125 448.65625 25.816406 455.003906 25.816406 C 459.582031 25.816406 463.6875 26.609375 467.320312 28.214844 L 464.066406 36.308594 C 461.351562 34.960938 458.429688 34.285156 455.277344 34.285156 C 452.121094 34.285156 449.722656 35.265625 448.097656 37.214844 C 446.460938 39.175781 445.640625 41.960938 445.640625 45.558594 C 445.640625 49.164062 446.371094 51.914062 447.851562 53.785156 C 449.34375 55.660156 451.484375 56.59375 454.285156 56.59375 C 455.839844 56.59375 457.230469 56.433594 458.46875 56.140625 Z M 458.46875 50.15625 "/>
</g>
<g clip-path="url(#clip2)" clip-rule="nonzero">
<path style="fill-rule:nonzero;fill:rgb(100%,100%,100%);fill-opacity:1;stroke-width:1;stroke-linecap:butt;stroke-linejoin:miter;stroke:rgb(100%,100%,100%);stroke-opacity:1;stroke-miterlimit:4;" d="M 0.0036409 50.207601 C 0.0036409 22.483263 22.478841 0.00371953 50.209394 0.00371953 C 77.944286 0.00371953 100.419487 22.483263 100.419487 50.207601 C 100.419487 77.936262 77.944286 100.42013 50.209394 100.42013 C 22.478841 100.42013 0.0036409 77.936262 0.0036409 50.207601 Z M 50.209394 96.498424 C 75.765767 96.498424 96.500756 75.783 96.500756 50.207601 C 96.500756 24.640849 75.765767 3.925425 50.209394 3.925425 C 24.640002 3.925425 3.922372 24.640849 3.922372 50.207601 C 3.922372 75.783 24.640002 96.498424 50.209394 96.498424 Z M 50.209394 96.498424 " transform="matrix(0.900124,0,0,0.903426,3.277973,0.0825772)"/>
</g>
<g clip-path="url(#clip3)" clip-rule="nonzero">
<path style=" stroke:none;fill-rule:nonzero;fill:rgb(100%,100%,100%);fill-opacity:1;" d="M 31.292969 51.996094 C 31.15625 52.460938 31.070312 52.949219 31.070312 53.46875 C 31.070312 55.648438 32.441406 57.535156 34.394531 58.382812 L 34.394531 58.882812 C 34.394531 62.074219 37.109375 64.660156 40.4375 64.660156 C 40.84375 64.660156 41.246094 64.609375 41.636719 64.535156 C 42.382812 66.132812 44.035156 67.207031 46 67.207031 C 47.679688 67.207031 49.0625 66.414062 49.832031 65.136719 L 52.605469 65.136719 C 52.988281 65.136719 53.292969 64.820312 53.292969 64.4375 L 53.292969 61.3125 C 55.246094 60.894531 57.148438 60.109375 58.835938 59.007812 L 61.046875 61.226562 C 61.171875 61.347656 61.351562 61.421875 61.535156 61.421875 C 61.71875 61.421875 61.890625 61.347656 62.015625 61.226562 L 65.914062 57.316406 C 66.179688 57.035156 66.179688 56.605469 65.914062 56.335938 L 63.703125 54.117188 C 64.804688 52.425781 65.582031 50.511719 66 48.550781 L 69.132812 48.550781 C 69.5 48.550781 69.816406 48.246094 69.816406 47.863281 L 69.816406 42.335938 C 69.816406 41.960938 69.5 41.640625 69.132812 41.640625 L 66 41.640625 C 65.582031 39.679688 64.804688 37.777344 63.703125 36.074219 L 65.914062 33.855469 C 66.179688 33.597656 66.179688 33.15625 65.914062 32.886719 L 62.015625 28.976562 C 61.757812 28.71875 61.304688 28.71875 61.046875 28.976562 L 58.835938 31.195312 C 57.148438 30.089844 55.246094 29.296875 53.292969 28.890625 L 53.292969 25.753906 C 53.292969 25.371094 52.988281 25.066406 52.605469 25.066406 L 49.246094 25.066406 C 48.425781 24.195312 47.289062 23.683594 45.980469 23.683594 C 44.269531 23.683594 42.761719 24.585938 41.917969 25.949219 L 40.644531 25.949219 C 37.320312 25.949219 34.605469 28.546875 34.605469 31.746094 L 34.605469 31.941406 C 31.730469 32.199219 29.457031 34.628906 29.457031 37.582031 C 29.457031 38.832031 29.875 39.984375 30.546875 40.914062 C 28.550781 41.929688 27.128906 44.113281 27.128906 46.359375 C 27.128906 48.90625 28.867188 51.203125 31.292969 51.996094 Z M 51.910156 26.4375 L 51.910156 29.453125 C 51.910156 29.785156 52.15625 30.082031 52.488281 30.140625 C 54.640625 30.511719 56.726562 31.378906 58.523438 32.644531 C 58.796875 32.835938 59.175781 32.800781 59.410156 32.570312 L 61.535156 30.4375 L 64.457031 33.378906 L 62.332031 35.496094 C 62.097656 35.742188 62.0625 36.109375 62.257812 36.390625 C 63.515625 38.195312 64.382812 40.292969 64.753906 42.449219 C 64.8125 42.78125 65.09375 43.027344 65.4375 43.027344 L 68.433594 43.027344 L 68.433594 47.167969 L 65.4375 47.167969 C 65.09375 47.167969 64.8125 47.410156 64.753906 47.742188 C 64.382812 49.898438 63.515625 51.996094 62.257812 53.808594 C 62.0625 54.082031 62.097656 54.445312 62.332031 54.691406 L 64.457031 56.824219 L 61.535156 59.753906 L 59.410156 57.621094 C 59.175781 57.390625 58.796875 57.355469 58.523438 57.550781 C 56.71875 58.824219 54.640625 59.683594 52.488281 60.058594 C 52.15625 60.125 51.910156 60.40625 51.910156 60.734375 L 51.910156 63.753906 L 50.394531 63.753906 C 50.480469 63.371094 50.542969 62.96875 50.542969 62.546875 L 50.542969 55.429688 C 55.910156 55.074219 60.179688 50.574219 60.179688 45.09375 C 60.179688 39.617188 55.910156 35.132812 50.542969 34.777344 L 50.542969 28.460938 C 50.542969 27.726562 50.394531 27.050781 50.136719 26.4375 Z M 50.542969 54.046875 L 50.542969 36.148438 C 55.152344 36.503906 58.796875 40.375 58.796875 45.09375 C 58.796875 49.816406 55.152344 53.691406 50.542969 54.046875 Z M 31.558594 41.980469 C 32.539062 42.765625 33.757812 43.242188 35.105469 43.242188 C 35.488281 43.242188 35.792969 42.925781 35.792969 42.546875 C 35.792969 42.167969 35.488281 41.859375 35.105469 41.859375 C 32.746094 41.859375 30.835938 39.945312 30.835938 37.582031 C 30.835938 35.214844 32.746094 33.289062 35.105469 33.289062 C 36.242188 33.289062 37.308594 33.746094 38.113281 34.554688 C 38.382812 34.820312 38.824219 34.820312 39.09375 34.554688 C 39.363281 34.285156 39.363281 33.84375 39.09375 33.574219 C 38.238281 32.71875 37.160156 32.175781 35.984375 31.992188 L 35.984375 31.746094 C 35.984375 29.308594 38.078125 27.335938 40.644531 27.335938 L 41.332031 27.335938 C 41.246094 27.703125 41.183594 28.097656 41.183594 28.488281 C 41.183594 28.707031 41.207031 28.917969 41.234375 29.125 C 41.273438 29.503906 41.613281 29.785156 41.992188 29.734375 C 42.371094 29.6875 42.640625 29.34375 42.589844 28.964844 C 42.582031 28.816406 42.566406 28.660156 42.566406 28.488281 C 42.566406 26.601562 44.097656 25.066406 45.980469 25.066406 C 47.828125 25.066406 49.160156 26.488281 49.160156 28.460938 L 49.160156 62.546875 C 49.160156 64.472656 47.863281 65.820312 46 65.820312 C 44.070312 65.820312 42.566406 64.398438 42.566406 62.585938 C 42.566406 62.097656 42.664062 61.605469 42.871094 61.164062 C 43.019531 60.820312 42.871094 60.40625 42.53125 60.257812 C 42.175781 60.097656 41.769531 60.246094 41.613281 60.601562 C 41.332031 61.226562 41.183594 61.886719 41.183594 62.585938 C 41.183594 62.792969 41.207031 63.003906 41.234375 63.214844 C 40.976562 63.257812 40.710938 63.289062 40.4375 63.289062 C 37.871094 63.289062 35.777344 61.3125 35.777344 58.882812 L 35.777344 58.785156 C 36.085938 58.835938 36.40625 58.859375 36.722656 58.859375 C 37.589844 58.859375 38.410156 58.675781 39.195312 58.320312 C 39.535156 58.164062 39.683594 57.746094 39.519531 57.402344 C 39.363281 57.058594 38.957031 56.910156 38.605469 57.070312 C 38.019531 57.339844 37.382812 57.488281 36.722656 57.488281 C 34.359375 57.488281 32.453125 55.683594 32.453125 53.46875 C 32.453125 51.382812 34.179688 49.617188 36.378906 49.445312 C 36.761719 49.425781 37.039062 49.089844 37.011719 48.714844 C 36.976562 48.328125 36.660156 48.046875 36.265625 48.074219 C 34.394531 48.21875 32.78125 49.25 31.863281 50.722656 C 30.140625 50.207031 28.511719 48.539062 28.511719 46.359375 C 28.511719 44.46875 29.808594 42.671875 31.558594 41.980469 Z M 31.558594 41.980469 "/>
</g>
<path style=" stroke:none;fill-rule:nonzero;fill:rgb(100%,100%,100%);fill-opacity:1;" d="M 37.796875 39.1875 C 38.128906 39.25 38.507812 39.273438 38.921875 39.273438 C 41.097656 39.273438 44.15625 38.316406 44.90625 34.566406 C 44.976562 34.183594 44.734375 33.820312 44.363281 33.746094 C 43.988281 33.671875 43.632812 33.917969 43.558594 34.296875 C 42.703125 38.550781 38.210938 37.863281 38.027344 37.828125 C 37.648438 37.765625 37.292969 38.011719 37.234375 38.390625 C 37.175781 38.769531 37.417969 39.125 37.796875 39.1875 Z M 37.796875 39.1875 "/>
<path style=" stroke:none;fill-rule:nonzero;fill:rgb(100%,100%,100%);fill-opacity:1;" d="M 42.910156 51.898438 C 41.429688 51.039062 39.898438 51.445312 39.828125 51.46875 C 39.476562 51.566406 39.253906 51.949219 39.351562 52.3125 C 39.445312 52.667969 39.828125 52.890625 40.195312 52.792969 C 40.476562 52.71875 42.960938 52.179688 43.847656 55.601562 C 43.9375 55.90625 44.21875 56.113281 44.523438 56.113281 C 44.585938 56.113281 44.632812 56.105469 44.695312 56.089844 C 45.0625 55.992188 45.28125 55.613281 45.1875 55.246094 C 44.765625 53.652344 43.996094 52.535156 42.910156 51.898438 Z M 42.910156 51.898438 "/>
</g>
</svg>
